<svg xmlns="http://www.w3.org/2000/svg" width="640" height="640" viewBox="0 0 640 640">
  <g fill="none" stroke="#1c2f3e" stroke-opacity="0.045" stroke-width="1.2" stroke-linecap="round">
    <path d="M-50 90 C 80 60, 180 110, 260 85 C 340 60, 420 110, 520 85 C 580 70, 640 90, 700 75"/>
    <path d="M-50 160 C 80 130, 180 180, 260 155 C 340 130, 420 180, 520 155 C 580 140, 640 160, 700 145"/>
    <path d="M-50 230 C 80 200, 180 250, 260 225 C 340 200, 420 250, 520 225 C 580 210, 640 230, 700 215"/>
    <path d="M-50 300 C 80 270, 180 320, 260 295 C 340 270, 420 320, 520 295 C 580 280, 640 300, 700 285"/>
    <path d="M-50 380 C 80 350, 180 400, 260 375 C 340 350, 420 400, 520 375 C 580 360, 640 380, 700 365"/>
    <path d="M-50 460 C 80 430, 180 480, 260 455 C 340 430, 420 480, 520 455 C 580 440, 640 460, 700 445"/>
    <path d="M-50 540 C 80 510, 180 560, 260 535 C 340 510, 420 560, 520 535 C 580 520, 640 540, 700 525"/>
    <path d="M-50 620 C 80 590, 180 640, 260 615 C 340 590, 420 640, 520 615 C 580 600, 640 620, 700 605"/>
  </g>
  <g fill="none" stroke="#1e5a8e" stroke-opacity="0.025" stroke-width="1">
    <path d="M-50 125 C 80 95, 180 145, 260 120 C 340 95, 420 145, 520 120 C 580 105, 640 125, 700 110"/>
    <path d="M-50 195 C 80 165, 180 215, 260 190 C 340 165, 420 215, 520 190 C 580 175, 640 195, 700 180"/>
    <path d="M-50 265 C 80 235, 180 285, 260 260 C 340 235, 420 285, 520 260 C 580 245, 640 265, 700 250"/>
    <path d="M-50 345 C 80 315, 180 365, 260 340 C 340 315, 420 365, 520 340 C 580 325, 640 345, 700 330"/>
    <path d="M-50 425 C 80 395, 180 445, 260 420 C 340 395, 420 445, 520 420 C 580 405, 640 425, 700 410"/>
    <path d="M-50 505 C 80 475, 180 525, 260 500 C 340 475, 420 525, 520 500 C 580 485, 640 505, 700 490"/>
  </g>
</svg>
